<svg width="286" height="120" viewBox="0 0 286 120" fill="none" xmlns="http://www.w3.org/2000/svg">
<g filter="url(#filter0_d_8_398)">
<rect x="6" y="1.99988" width="273.101" height="108" rx="54" fill="white"/>
<g filter="url(#filter1_d_8_398)">
<g clip-path="url(#clip0_8_398)">
<rect x="14" y="10" width="257.101" height="92" rx="46" fill="#EF3E5C"/>
<path d="M271.101 8.99994H14L14 31.5891L17.1645 33.2483C96.4833 74.8325 192.373 74.206 271.101 31.5891V8.99994Z" fill="white" fill-opacity="0.1"/>
<g clip-path="url(#clip1_8_398)">
<g opacity="0.3">
<path d="M1.2912 91.9986C5.90279 103.247 17.6578 105.43 26.6635 108.005C29.8414 108.914 32.8853 109.748 35.1984 108.8C37.5116 107.851 39.094 105.12 40.7195 102.242C45.3259 94.0868 52.1659 84.2808 47.5543 73.0322C42.9427 61.7834 26.9494 59.022 20.9742 74.1037C6.13181 67.5566 -3.32044 80.7499 1.2912 91.9986Z" fill="white"/>
</g>
<g opacity="0.1">
<path d="M20.9446 25.631C21.414 33.429 28.1096 37.1964 33.0517 40.6319C34.7956 41.8441 36.4735 42.9833 38.0771 42.8868C39.6807 42.7903 41.2098 41.458 42.7958 40.0453C47.2901 36.0418 53.4853 31.4983 53.0158 23.7003C52.5464 15.9023 43.3936 10.9031 36.6292 18.8344C28.9621 11.7718 20.4752 17.833 20.9446 25.631Z" fill="white"/>
</g>
<g opacity="0.3">
<path d="M134.559 0.539163C130.28 -10.8401 118.594 -13.367 109.668 -16.2054C106.518 -17.2071 103.5 -18.1303 101.16 -17.2503C98.82 -16.3704 97.1581 -13.6872 95.4487 -10.8582C90.6048 -2.84139 83.4798 6.75949 87.759 18.1387C92.0383 29.518 107.944 32.748 114.359 17.8483C129.003 24.8285 138.838 11.9185 134.559 0.539163Z" fill="white"/>
</g>
<g opacity="0.1">
<path d="M279.134 31.4406C291.347 34.5158 300.397 26.0598 308.083 20.1371C310.795 18.0471 313.363 16.0229 313.995 13.5114C314.628 10.9999 313.325 8.00112 311.926 4.87584C307.961 -3.98053 303.995 -15.714 291.781 -18.7892C279.568 -21.8644 267.429 -10.2316 276.325 4.02609C261.737 12.3709 266.921 28.3654 279.134 31.4406Z" fill="white"/>
</g>
<g opacity="0.1">
<path d="M146.841 107.588C159.054 110.663 168.104 102.207 175.79 96.2845C178.502 94.1945 181.07 92.1704 181.702 89.6589C182.335 87.1474 181.032 84.1486 179.633 81.0233C175.668 72.1669 171.702 60.4335 159.488 57.3583C147.275 54.2831 135.136 65.9159 144.032 80.1735C129.444 88.5184 134.628 104.513 146.841 107.588Z" fill="white"/>
</g>
<g opacity="0.2">
<path d="M84.8188 70.3688C87.4748 74.8143 92.5646 74.988 96.5213 75.5014C97.9175 75.6826 99.2526 75.8409 100.167 75.2947C101.081 74.7486 101.574 73.4979 102.076 72.1826C103.499 68.4551 105.758 63.8908 103.102 59.4453C100.446 54.9997 93.5346 54.851 91.9744 61.5827C85.3073 59.7664 82.1628 65.9232 84.8188 70.3688Z" fill="white"/>
</g>
<g opacity="0.2">
<path d="M256.641 83.5291C261.985 75.9526 258.57 67.4979 256.535 60.6506C255.817 58.2343 255.106 55.9347 253.548 54.8357C251.99 53.7367 249.585 53.8384 247.068 53.9725C239.935 54.3528 230.825 53.973 225.48 61.5495C220.136 69.126 224.915 80.5438 237.064 78.205C238.937 90.4342 251.296 91.1056 256.641 83.5291Z" fill="white"/>
</g>
<g opacity="0.3">
<path d="M213.462 18.2763C210.811 11.9381 204.16 10.7514 199.061 9.33194C197.261 8.83105 195.538 8.37173 194.235 8.91681C192.931 9.46188 192.048 11.0114 191.141 12.6441C188.57 17.2711 184.744 22.8396 187.394 29.1778C190.045 35.5161 199.094 37.0131 202.41 28.4668C210.824 32.1076 216.113 24.6146 213.462 18.2763Z" fill="white"/>
</g>
</g>
</g>
<rect x="18" y="14" width="249.101" height="84" rx="42" stroke="url(#paint0_linear_8_398)" stroke-width="8"/>
</g>
<g filter="url(#filter2_d_8_398)">
<path fill-rule="evenodd" clip-rule="evenodd" d="M85.2 76.9999C96.7979 76.9999 106.2 67.5978 106.2 55.9999C106.2 44.402 96.7979 34.9999 85.2 34.9999C73.602 34.9999 64.2 44.402 64.2 55.9999C64.2 67.5978 73.602 76.9999 85.2 76.9999ZM82.4564 64.0761L92.3688 58.2238C94.0103 57.2545 94.0103 54.7454 92.3688 53.776L82.4564 47.9237C80.8608 46.9817 78.9 48.2078 78.9 50.1476V61.8522C78.9 63.792 80.8608 65.0182 82.4564 64.0761Z" fill="white"/>
</g>
<g filter="url(#filter3_d_8_398)">
<path d="M136.118 37.26C138.048 37.26 139.718 37.7496 141.13 38.7288C142.541 39.6792 143.549 40.8744 144.154 42.3144C144.787 43.7544 145.046 45.2808 144.931 46.8936C144.816 48.3048 144.456 49.5432 143.851 50.6088C143.275 51.6744 142.512 52.5096 141.562 53.1144C140.611 53.7192 139.56 54.18 138.408 54.4968C137.285 54.8136 136.032 55.0008 134.65 55.0584C134.419 55.0584 134.218 55.1592 134.045 55.3608C133.872 55.5336 133.8 55.7496 133.829 56.0088L134.606 65.7288C134.635 65.988 134.563 66.2184 134.39 66.42C134.246 66.5928 134.059 66.6936 133.829 66.7224L126.658 67.4136C126.398 67.4424 126.168 67.3704 125.966 67.1976C125.765 67.0248 125.664 66.8088 125.664 66.5496V38.1672C125.664 37.908 125.75 37.692 125.923 37.5192C126.096 37.3464 126.312 37.26 126.571 37.26H136.118ZM136.118 50.5224C136.81 50.5224 137.4 50.292 137.89 49.8312C138.379 49.3416 138.624 48.78 138.624 48.1464C138.624 47.484 138.379 46.9224 137.89 46.4616C137.4 45.972 136.81 45.7272 136.118 45.7272H134.65C134.39 45.7272 134.174 45.8136 134.002 45.9864C133.829 46.1592 133.742 46.3752 133.742 46.6344L133.829 49.6584C133.858 49.9176 133.958 50.1336 134.131 50.3064C134.304 50.4504 134.506 50.5224 134.736 50.5224H136.118ZM166.976 65.6856C166.976 65.9448 166.89 66.1752 166.717 66.3768C166.544 66.5496 166.343 66.636 166.112 66.636C164.327 66.6936 161.346 66.852 157.17 67.1112C152.994 67.3704 149.812 67.5144 147.623 67.5432C147.364 67.5432 147.148 67.4568 146.975 67.284C146.802 67.0824 146.716 66.8664 146.716 66.636L146.759 63.4824L147.148 38.2104C147.148 37.9512 147.248 37.7352 147.45 37.5624C147.652 37.3896 147.882 37.3176 148.141 37.3464L154.319 37.8648C154.549 37.8936 154.736 37.9944 154.88 38.1672C155.053 38.3112 155.14 38.5128 155.14 38.772V59.94C155.14 60.228 155.255 60.4728 155.485 60.6744C155.744 60.8472 156.018 60.876 156.306 60.7608L162.224 58.9032C162.311 58.8744 162.397 58.86 162.484 58.86C163.261 58.86 164.341 58.86 165.724 58.86C165.954 58.86 166.156 58.9464 166.328 59.1192C166.501 59.2632 166.602 59.4504 166.631 59.6808L166.976 65.6856ZM183.815 51.6888L182.865 48.4488C182.75 48.0168 182.462 47.8008 182.001 47.8008C181.569 47.8008 181.281 48.0024 181.137 48.4056L180.057 51.6456C179.97 51.9624 180.014 52.2504 180.186 52.5096C180.359 52.74 180.604 52.8552 180.921 52.8552H182.951C183.239 52.8552 183.47 52.74 183.642 52.5096C183.844 52.2504 183.902 51.9768 183.815 51.6888ZM175.866 37.9512C175.982 37.4904 176.27 37.26 176.73 37.26C177.94 37.2888 179.754 37.3752 182.174 37.5192C184.593 37.6632 186.407 37.7352 187.617 37.7352C188.078 37.764 188.351 38.0088 188.438 38.4696L194.874 66.3336C194.932 66.6504 194.86 66.924 194.658 67.1544C194.486 67.3848 194.241 67.4856 193.924 67.4568L188.438 67.0248C188.034 66.996 187.761 66.7944 187.617 66.42L185.284 58.86C185.169 58.4568 184.881 58.2552 184.42 58.2552H179.322C178.804 58.2552 178.502 58.4856 178.415 58.9464L177.076 66.2904C176.99 66.7512 176.716 66.996 176.255 67.0248L169.646 67.4568C169.358 67.4856 169.113 67.3848 168.911 67.1544C168.71 66.8952 168.652 66.6216 168.738 66.3336L175.866 37.9512ZM197.616 37.3464L204.96 37.7784C205.277 37.8072 205.507 37.9656 205.651 38.2536L209.885 46.0296C210.058 46.3464 210.317 46.5048 210.662 46.5048C211.037 46.5048 211.31 46.3464 211.483 46.0296L215.976 37.7352C216.149 37.4184 216.408 37.26 216.754 37.26H222.758C223.104 37.26 223.363 37.4184 223.536 37.7352C223.709 38.0232 223.694 38.3256 223.493 38.6424C222.974 39.4776 221.995 41.0328 220.555 43.308C219.144 45.5544 217.877 47.5848 216.754 49.3992C215.63 51.1848 214.925 52.308 214.637 52.7688C214.55 52.9416 214.507 53.1144 214.507 53.2872L214.853 65.9448C214.853 66.1752 214.766 66.3768 214.594 66.5496C214.45 66.7224 214.248 66.8232 213.989 66.852L204.658 67.4568C204.37 67.4856 204.125 67.3848 203.923 67.1544C203.722 66.8952 203.664 66.6216 203.75 66.3336L207.077 54.1512C207.134 53.892 207.091 53.6472 206.947 53.4168L196.838 38.772C196.608 38.4552 196.579 38.1384 196.752 37.8216C196.954 37.5048 197.242 37.3464 197.616 37.3464Z" fill="white"/>
</g>
</g>
<defs>
<filter id="filter0_d_8_398" x="0" y="-0.000121593" width="285.101" height="120" filterUnits="userSpaceOnUse" color-interpolation-filters="sRGB">
<feFlood flood-opacity="0" result="BackgroundImageFix"/>
<feColorMatrix in="SourceAlpha" type="matrix" values="0 0 0 0 0 0 0 0 0 0 0 0 0 0 0 0 0 0 127 0" result="hardAlpha"/>
<feOffset dy="4"/>
<feGaussianBlur stdDeviation="3"/>
<feComposite in2="hardAlpha" operator="out"/>
<feColorMatrix type="matrix" values="0 0 0 0 0 0 0 0 0 0 0 0 0 0 0 0 0 0 0.25 0"/>
<feBlend mode="normal" in2="BackgroundImageFix" result="effect1_dropShadow_8_398"/>
<feBlend mode="normal" in="SourceGraphic" in2="effect1_dropShadow_8_398" result="shape"/>
</filter>
<filter id="filter1_d_8_398" x="7.99998" y="4" width="269.101" height="104" filterUnits="userSpaceOnUse" color-interpolation-filters="sRGB">
<feFlood flood-opacity="0" result="BackgroundImageFix"/>
<feColorMatrix in="SourceAlpha" type="matrix" values="0 0 0 0 0 0 0 0 0 0 0 0 0 0 0 0 0 0 127 0" result="hardAlpha"/>
<feMorphology radius="2" operator="dilate" in="SourceAlpha" result="effect1_dropShadow_8_398"/>
<feOffset/>
<feGaussianBlur stdDeviation="2"/>
<feComposite in2="hardAlpha" operator="out"/>
<feColorMatrix type="matrix" values="0 0 0 0 0 0 0 0 0 0 0 0 0 0 0 0 0 0 0.25 0"/>
<feBlend mode="normal" in2="BackgroundImageFix" result="effect1_dropShadow_8_398"/>
<feBlend mode="normal" in="SourceGraphic" in2="effect1_dropShadow_8_398" result="shape"/>
</filter>
<filter id="filter2_d_8_398" x="60" y="30.8" width="50.4" height="52.4" filterUnits="userSpaceOnUse" color-interpolation-filters="sRGB">
<feFlood flood-opacity="0" result="BackgroundImageFix"/>
<feColorMatrix in="SourceAlpha" type="matrix" values="0 0 0 0 0 0 0 0 0 0 0 0 0 0 0 0 0 0 127 0" result="hardAlpha"/>
<feOffset dy="2"/>
<feComposite in2="hardAlpha" operator="out"/>
<feColorMatrix type="matrix" values="0 0 0 0 0 0 0 0 0 0 0 0 0 0 0 0 0 0 0.15 0"/>
<feBlend mode="normal" in2="BackgroundImageFix" result="effect1_dropShadow_8_398"/>
<feBlend mode="normal" in="SourceGraphic" in2="effect1_dropShadow_8_398" result="shape"/>
</filter>
<filter id="filter3_d_8_398" x="125.664" y="37.26" width="98.1312" height="33.8832" filterUnits="userSpaceOnUse" color-interpolation-filters="sRGB">
<feFlood flood-opacity="0" result="BackgroundImageFix"/>
<feColorMatrix in="SourceAlpha" type="matrix" values="0 0 0 0 0 0 0 0 0 0 0 0 0 0 0 0 0 0 127 0" result="hardAlpha"/>
<feOffset dy="3.6"/>
<feComposite in2="hardAlpha" operator="out"/>
<feColorMatrix type="matrix" values="0 0 0 0 0 0 0 0 0 0 0 0 0 0 0 0 0 0 0.15 0"/>
<feBlend mode="normal" in2="BackgroundImageFix" result="effect1_dropShadow_8_398"/>
<feBlend mode="normal" in="SourceGraphic" in2="effect1_dropShadow_8_398" result="shape"/>
</filter>
<linearGradient id="paint0_linear_8_398" x1="142.551" y1="10" x2="142.551" y2="102" gradientUnits="userSpaceOnUse">
<stop stop-color="white" stop-opacity="0.2"/>
<stop offset="0.491666" stop-color="#828282" stop-opacity="0.298333"/>
<stop offset="1" stop-opacity="0.4"/>
</linearGradient>
<clipPath id="clip0_8_398">
<rect x="14" y="10" width="257.101" height="92" rx="46" fill="white"/>
</clipPath>
<clipPath id="clip1_8_398">
<rect width="800" height="118" fill="white" transform="translate(-330 -4.00006)"/>
</clipPath>
</defs>
</svg>
