<svg width="626" height="699" viewBox="0 0 626 699" fill="none" xmlns="http://www.w3.org/2000/svg">
<path d="M290.088 330C300.794 330 309.459 338.665 309.459 349.355C309.459 368.709 290.088 379.721 270.733 399.075C251.379 379.721 232.024 368.709 232.024 349.355C232.024 338.665 240.69 330 251.379 330C261.058 330 265.895 334.839 270.733 344.516C275.57 334.839 280.411 330 290.088 330Z" fill="#EF3E5C"/>
<path d="M247.525 354.141C247.525 344.782 254.167 336.978 262.993 335.177C259.553 331.435 255.408 329.562 249.39 329.562C238.701 329.562 230.035 338.227 230.035 348.917C230.035 368.271 249.39 379.283 268.744 398.638C270.712 396.67 272.676 394.794 274.625 392.981C259.831 379.701 247.525 369.572 247.525 354.141Z" fill="#E42A53"/>
<path d="M337.74 116.53C357.481 116.53 373.461 132.509 373.461 152.201C373.461 187.872 337.74 208.191 302.071 243.862C266.4 208.191 230.729 187.872 230.729 152.201C230.729 132.509 246.706 116.53 266.398 116.53C284.226 116.53 293.149 125.451 302.069 143.279C310.993 125.451 319.913 116.53 337.74 116.53Z" fill="#EF3E5C"/>
<path d="M251.626 160.238C251.626 140.545 267.603 124.566 287.295 124.566C287.948 124.566 288.564 124.603 289.192 124.628C283.296 119.241 276.195 116.529 266.398 116.529C246.705 116.529 230.728 132.508 230.728 152.2C230.728 187.871 266.398 208.19 302.07 243.861C304.12 241.81 306.171 239.815 308.216 237.86C278.086 210.301 251.626 190.957 251.626 160.238Z" fill="#E42A53"/>
<path d="M533.684 0H460.863V43.6926H533.684V0Z" fill="#E53935"/>
<path d="M474.258 13.8087H533.684V0H460.863V43.6926H474.258V13.8087Z" fill="#D32A2A"/>
<path d="M562.828 43.6923V101.965H533.877H463.499H431.734V43.6923H460.863H533.684H562.828Z" fill="#D32F2E"/>
<path d="M443.188 55.5479H472.316H545.137H562.828V43.6923H533.684H460.863H431.734V101.965H443.188V55.5479Z" fill="#C12727"/>
<path d="M562.314 320.461H441.283C458.403 243.444 468.629 166.379 463.499 101.965H533.877C535.388 171.78 546.657 247.334 562.314 320.461Z" fill="#EF3E5C"/>
<path d="M454.108 320.461C469.894 246.812 479.055 173.624 474.149 112.012H534.181C534.065 108.654 533.949 105.298 533.878 101.965H463.501C468.629 166.379 458.405 243.444 441.285 320.461H454.108Z" fill="#E42A53"/>
<path d="M587.054 422.428H414.966C424.611 389.2 433.63 354.83 441.282 320.461H562.312C569.757 355.297 578.196 389.567 587.054 422.428Z" fill="#BE0000"/>
<path d="M454.142 333.803H565.219C564.237 329.366 563.266 324.918 562.312 320.461H441.282C433.63 354.83 424.611 389.2 414.966 422.428H431.644C439.849 393.378 447.511 363.592 454.142 333.803Z" fill="#970000"/>
<path d="M679.358 699.18H650.214H562.828V589.931C562.828 571.83 555.498 555.451 543.636 543.586C531.771 531.724 515.376 524.378 497.273 524.378C461.072 524.378 431.734 553.731 431.734 589.931V699.18H315.205C315.205 699.18 371.452 572.377 414.968 422.428H587.055C628.641 576.555 679.358 699.18 679.358 699.18Z" fill="#EF3E5C"/>
<path d="M423.004 436.895H591.01C589.684 432.105 588.364 427.282 587.054 422.427H414.967C371.452 572.376 315.203 699.18 315.203 699.18H329.472C345.29 661.858 388.216 556.778 423.004 436.895Z" fill="#E42A53"/>
<path d="M570.866 699.18V604.398C570.866 589.878 566.14 576.468 558.147 565.604C561.157 573.127 562.828 581.33 562.828 589.931V699.18H570.866Z" fill="#E42A53"/>
<path d="M679.358 430.466H315.204C310.764 430.466 307.167 426.868 307.167 422.428C307.167 417.988 310.764 414.391 315.204 414.391H679.358C683.798 414.391 687.396 417.988 687.396 422.428C687.396 426.868 683.798 430.466 679.358 430.466Z" fill="#D32F2E"/>
<path d="M621.085 328.498H373.461C369.021 328.498 365.424 324.899 365.424 320.461C365.424 316.022 369.021 312.423 373.461 312.423H621.085C625.525 312.423 629.123 316.022 629.123 320.461C629.123 324.899 625.525 328.498 621.085 328.498Z" fill="#E53935"/>
<path d="M322.84 699.18H148.038C143.599 699.18 140 695.583 140 691.143C140 686.703 143.599 683.105 148.038 683.105H322.84C327.279 683.105 330.878 686.703 330.878 691.143C330.878 695.583 327.279 699.18 322.84 699.18Z" fill="#E42A53"/>
<path d="M235.058 678.153C233.542 679.066 231.535 678.928 230.087 677.669C228.277 676.094 228.031 673.364 229.536 671.571C240.635 658.335 245.186 644.078 243.062 629.194C238.174 594.941 200.063 567.755 199.679 567.484C197.722 566.106 197.195 563.409 198.502 561.461C199.808 559.512 202.454 559.049 204.411 560.426C206.11 561.622 246.067 590.145 251.495 628.179C253.981 645.599 248.797 662.116 236.088 677.271C235.786 677.629 235.438 677.924 235.058 678.153Z" fill="#743629"/>
<path d="M111.583 582.186C124.72 585.652 128.832 602.13 138.609 620.088C122.109 631.09 111.259 643.594 98.1238 640.114C90.865 638.202 86.4831 630.155 88.3472 622.159C90.0278 614.923 94.1538 612.174 101.566 610.294C95.8308 604.932 93.3926 600.441 95.0741 593.206C96.9292 585.195 104.327 580.262 111.583 582.186Z" fill="#EF3E5C"/>
<path d="M111.583 582.187C104.327 580.263 96.9289 585.196 95.0738 593.207C94.4549 595.866 94.3991 598.153 94.854 600.251C97.6187 593.983 104.066 590.428 110.405 592.109C121.886 595.139 126.473 608.104 133.973 623.308C135.471 622.231 137.013 621.154 138.61 620.089C128.832 602.131 124.72 585.653 111.583 582.187Z" fill="#D33356"/>
<path d="M214.458 631.623C217.534 634.569 220.112 638.08 222.091 641.973C218.583 644.47 214.708 646.308 210.623 647.373C205.292 648.775 199.606 648.853 193.957 647.352C188.435 645.899 183.539 643.093 179.487 639.33C176.224 636.303 173.504 632.654 171.436 628.581C174.994 626.051 178.93 624.199 183.075 623.137C188.359 621.786 193.984 621.723 199.569 623.2C205.284 624.712 210.326 627.662 214.458 631.623Z" fill="#8EAA39"/>
<path d="M187.899 631.148C193.183 629.797 198.808 629.734 204.393 631.211C210.108 632.722 215.151 635.673 219.282 639.634C220.138 640.454 220.949 641.319 221.725 642.222C221.846 642.137 221.971 642.058 222.092 641.974C220.113 638.081 217.535 634.57 214.459 631.624C210.327 627.663 205.285 624.713 199.57 623.201C193.985 621.724 188.36 621.787 183.076 623.138C178.931 624.2 174.995 626.052 171.437 628.582C172.865 631.396 174.612 634 176.626 636.344C180.089 633.945 183.894 632.175 187.899 631.148Z" fill="#7D932E"/>
<path d="M278.465 545.704C281.062 549.377 282.994 553.421 284.153 557.654C285.626 563.051 285.838 568.76 284.531 574.387C283.193 580.144 280.416 585.182 276.62 589.267C273.789 592.314 270.394 594.837 266.607 596.74C264.057 593.112 262.135 589.134 260.974 584.961C259.457 579.51 259.23 573.741 260.55 568.054C261.844 562.485 264.474 557.597 268.078 553.587C270.984 550.353 274.511 547.691 278.465 545.704Z" fill="#8EAA39"/>
<path d="M267.156 591.916C265.639 586.464 265.411 580.695 266.732 575.008C268.025 569.439 270.656 564.551 274.259 560.541C276.704 557.82 279.592 555.509 282.799 553.661C281.682 550.877 280.231 548.203 278.465 545.704C274.511 547.689 270.984 550.352 268.078 553.587C264.474 557.597 261.844 562.485 260.551 568.054C259.23 573.741 259.458 579.51 260.975 584.962C262.135 589.134 264.057 593.113 266.607 596.74C267.238 596.425 267.852 596.084 268.46 595.734C267.957 594.481 267.516 593.21 267.156 591.916Z" fill="#7D932E"/>
<path d="M171.096 495.9C172.074 492.494 172.967 489.079 173.783 485.649C173.908 485.168 174.02 484.683 174.124 484.203C174.493 482.619 174.844 481.024 175.174 479.442C175.304 478.855 175.423 478.265 175.541 477.675C176.272 474.073 176.925 470.487 177.502 466.906C177.634 466.093 177.755 465.279 177.876 464.463C178.026 463.519 178.159 462.575 178.289 461.643C179.217 455.075 179.901 448.592 180.389 442.259C180.463 441.35 180.53 440.445 180.59 439.545C180.781 436.848 180.932 434.184 181.05 431.561C181.093 430.681 181.127 429.805 181.153 428.947C181.257 426.301 181.326 423.696 181.372 421.137C181.413 418.663 181.429 416.232 181.422 413.847C181.426 413.804 181.427 413.772 181.423 413.734C181.418 412.202 181.403 410.686 181.383 409.194C181.368 408.369 181.359 407.55 181.335 406.742C181.322 405.967 181.307 405.203 181.277 404.449C181.204 401.412 181.088 398.483 180.949 395.678C180.946 395.559 180.943 395.439 180.951 395.321L193.975 428.597C196.322 434.607 199.747 440.148 204.06 444.934L224.451 467.542C234.57 484.347 237.122 503.542 233.063 520.984C229.009 538.434 218.35 554.137 202.044 563.956C180.113 577.162 153.553 576.358 132.348 564.195C133.078 563.491 133.804 562.779 134.514 562.058C134.521 562.054 134.523 562.041 134.53 562.037C134.559 562.019 134.591 561.99 134.616 561.965C134.86 561.715 135.098 561.472 135.33 561.219C135.487 561.054 135.641 560.899 135.791 560.739C136.385 560.137 136.966 559.512 137.531 558.877C138.337 558.005 139.136 557.118 139.905 556.217C140.494 555.557 141.063 554.879 141.619 554.198C142.271 553.429 142.9 552.654 143.515 551.857C144.457 550.669 145.379 549.463 146.279 548.24C146.73 547.612 147.186 546.992 147.632 546.357C148.086 545.718 148.528 545.076 148.969 544.433C149.22 544.079 149.458 543.721 149.697 543.364C149.744 543.295 149.784 543.23 149.831 543.161C150.197 542.605 150.556 542.054 150.915 541.503C151.058 541.283 151.196 541.069 151.333 540.854C151.744 540.21 152.151 539.558 152.55 538.912C152.932 538.284 153.315 537.658 153.692 537.023C153.952 536.603 154.195 536.171 154.447 535.736C155.701 533.577 156.901 531.391 158.047 529.165C158.281 528.719 158.508 528.277 158.731 527.828C159.174 526.941 159.619 526.043 160.057 525.148C160.372 524.49 160.682 523.826 160.992 523.162C162.159 520.659 163.266 518.122 164.304 515.554C164.47 515.159 164.632 514.756 164.794 514.354C165.186 513.365 165.573 512.37 165.948 511.371C166.273 510.535 166.582 509.688 166.891 508.841C166.925 508.749 166.958 508.657 166.992 508.566C167.501 507.151 167.992 505.738 168.47 504.32C168.5 504.222 168.534 504.13 168.56 504.042C168.845 503.189 169.126 502.329 169.4 501.473C169.732 500.418 170.064 499.364 170.38 498.3C170.621 497.504 170.862 496.709 171.087 495.902L171.095 495.898L171.096 495.9Z" fill="#E42A53"/>
<path d="M142.94 561.794C143.67 561.089 144.396 560.378 145.106 559.656C145.113 559.652 145.116 559.64 145.123 559.635C145.152 559.618 145.183 559.589 145.207 559.563C145.452 559.314 145.69 559.07 145.923 558.817C146.079 558.652 146.233 558.498 146.383 558.337C146.977 557.735 147.558 557.11 148.123 556.475C148.93 555.603 149.728 554.716 150.497 553.815C151.087 553.155 151.655 552.478 152.212 551.797C152.864 551.028 153.492 550.252 154.107 549.455C155.049 548.268 155.97 547.061 156.871 545.838C157.322 545.21 157.778 544.591 158.224 543.955C158.678 543.316 159.12 542.674 159.562 542.031C159.812 541.677 160.051 541.32 160.289 540.963C160.337 540.894 160.376 540.829 160.424 540.76C160.789 540.204 161.148 539.653 161.507 539.101C161.651 538.882 161.788 538.667 161.925 538.453C162.336 537.808 162.743 537.157 163.142 536.51C163.525 535.883 163.907 535.256 164.285 534.622C164.544 534.201 164.788 533.77 165.038 533.334C166.294 531.175 167.493 528.989 168.639 526.763C168.873 526.317 169.101 525.875 169.323 525.426C169.766 524.54 170.212 523.641 170.65 522.746C170.964 522.089 171.274 521.424 171.584 520.76C172.751 518.257 173.858 515.721 174.896 513.153C175.063 512.758 175.225 512.355 175.387 511.952C175.778 510.964 176.165 509.968 176.541 508.97C176.865 508.133 177.175 507.286 177.483 506.439C177.517 506.348 177.55 506.256 177.584 506.164C178.094 504.749 178.584 503.336 179.063 501.919C179.092 501.82 179.126 501.728 179.152 501.641C179.437 500.788 179.718 499.927 179.992 499.071C180.324 498.017 180.657 496.963 180.972 495.898C181.213 495.102 181.455 494.306 181.679 493.5L181.687 493.495C182.665 490.09 183.558 486.674 184.374 483.246C184.498 482.764 184.61 482.279 184.715 481.799C185.083 480.214 185.435 478.62 185.765 477.038C185.895 476.451 186.014 475.861 186.131 475.271C186.863 471.669 187.515 468.083 188.093 464.502C188.225 463.69 188.346 462.875 188.467 462.06C188.617 461.115 188.749 460.171 188.879 459.239C189.808 452.67 190.492 446.188 190.98 439.855C191.054 438.946 191.121 438.042 191.18 437.141C191.371 434.443 191.523 431.78 191.641 429.156C191.683 428.277 191.718 427.402 191.744 426.542C191.788 425.413 191.823 424.295 191.856 423.181L180.951 395.319C180.942 395.436 180.946 395.556 180.949 395.676C181.089 398.481 181.205 401.409 181.277 404.447C181.307 405.202 181.323 405.966 181.335 406.74C181.359 407.549 181.368 408.367 181.383 409.193C181.402 410.685 181.417 412.201 181.423 413.733C181.427 413.771 181.426 413.802 181.422 413.845C181.429 416.231 181.412 418.66 181.372 421.135C181.326 423.695 181.256 426.3 181.153 428.945C181.127 429.804 181.093 430.679 181.05 431.559C180.932 434.182 180.781 436.846 180.59 439.544C180.53 440.444 180.463 441.348 180.389 442.257C179.901 448.59 179.217 455.073 178.289 461.641C178.16 462.573 178.027 463.516 177.876 464.462C177.755 465.277 177.634 466.092 177.502 466.904C176.925 470.485 176.272 474.07 175.541 477.674C175.423 478.263 175.304 478.853 175.174 479.44C174.844 481.022 174.493 482.617 174.125 484.201C174.02 484.681 173.907 485.166 173.783 485.648C172.968 489.078 172.074 492.493 171.096 495.898L171.089 495.902C170.864 496.709 170.623 497.505 170.382 498.3C170.066 499.364 169.734 500.419 169.402 501.473C169.129 502.33 168.847 503.189 168.562 504.043C168.535 504.13 168.502 504.222 168.472 504.32C167.994 505.737 167.503 507.151 166.994 508.567C166.96 508.657 166.927 508.75 166.893 508.841C166.584 509.687 166.276 510.535 165.95 511.371C165.575 512.37 165.188 513.366 164.797 514.354C164.635 514.756 164.473 515.159 164.306 515.554C163.267 518.122 162.161 520.659 160.995 523.162C160.685 523.827 160.374 524.491 160.059 525.148C159.621 526.042 159.176 526.941 158.734 527.828C158.511 528.278 158.283 528.719 158.049 529.166C156.903 531.391 155.703 533.577 154.449 535.736C154.198 536.171 153.955 536.603 153.695 537.023C153.317 537.658 152.934 538.284 152.553 538.912C152.153 539.558 151.746 540.211 151.335 540.854C151.198 541.069 151.061 541.284 150.917 541.503C150.558 542.054 150.199 542.606 149.833 543.161C149.786 543.23 149.746 543.295 149.699 543.364C149.46 543.722 149.222 544.079 148.971 544.433C148.529 545.075 148.088 545.718 147.634 546.357C147.187 546.992 146.732 547.612 146.282 548.24C145.381 549.464 144.459 550.669 143.517 551.857C142.902 552.654 142.274 553.429 141.622 554.198C141.065 554.879 140.496 555.557 139.907 556.217C139.138 557.118 138.34 558.005 137.533 558.877C136.968 559.512 136.388 560.137 135.793 560.739C135.643 560.899 135.49 561.054 135.332 561.219C135.099 561.471 134.862 561.716 134.618 561.965C134.593 561.99 134.562 562.019 134.533 562.037C134.525 562.041 134.523 562.054 134.516 562.058C133.806 562.78 133.081 563.492 132.35 564.195C149.05 573.774 169.069 576.301 187.533 570.495C172.218 572.688 156.487 569.563 142.94 561.794Z" fill="#C62650"/>
<path d="M78.7657 463.139C78.7657 463.139 131.284 464.732 171.089 495.904C170.864 496.71 170.623 497.506 170.382 498.301C170.066 499.366 169.734 500.42 169.401 501.474C169.128 502.331 168.847 503.191 168.562 504.044C168.535 504.131 168.502 504.223 168.472 504.321C167.993 505.738 167.503 507.152 166.994 508.568C166.96 508.659 166.927 508.751 166.893 508.842C166.591 509.684 166.271 510.529 165.95 511.373C165.575 512.371 165.188 513.367 164.796 514.355C164.634 514.758 164.472 515.16 164.306 515.556C163.267 518.123 162.161 520.66 160.994 523.163C160.691 523.824 160.381 524.487 160.059 525.149C159.621 526.043 159.175 526.942 158.733 527.83C158.51 528.279 158.276 528.724 158.049 529.167C156.903 531.392 155.703 533.578 154.448 535.738C154.205 536.168 153.95 536.597 153.694 537.025C153.316 537.659 152.934 538.286 152.552 538.913C152.15 539.571 151.751 540.22 151.334 540.856C151.197 541.07 151.06 541.285 150.916 541.505C150.562 542.064 150.204 542.615 149.833 543.163C149.786 543.232 149.746 543.297 149.699 543.366C149.46 543.723 149.214 544.085 148.971 544.434C148.529 545.077 148.087 545.719 147.634 546.358C147.194 546.989 146.736 547.621 146.281 548.241C145.38 549.465 144.459 550.671 143.517 551.858C142.897 552.648 142.261 553.428 141.621 554.199C141.065 554.88 140.492 555.551 139.907 556.218C139.138 557.12 138.339 558.006 137.533 558.878C136.963 559.506 136.383 560.131 135.793 560.74C135.643 560.901 135.489 561.055 135.332 561.22C135.07 561.49 134.801 561.764 134.532 562.037C134.525 562.042 134.522 562.054 134.515 562.059C133.182 563.318 131.161 563.518 129.571 562.515C120.504 556.749 112.553 548.837 106.556 538.976C106.423 538.772 106.315 538.542 106.218 538.315L94.8826 510.072C90.6516 499.523 84.7571 489.702 77.4373 481.003L68.0087 469.802C65.1934 466.454 68.595 461.65 72.5762 463.33L78.7657 463.139Z" fill="#D30045"/>
<path d="M119.281 544.261C119.148 544.056 119.039 543.827 118.942 543.6L107.607 515.357C103.376 504.808 97.4816 494.987 90.1618 486.288L80.7327 475.086C77.9175 471.738 81.3191 466.934 85.3003 468.614L91.4906 468.425C91.4906 468.425 115.956 469.17 144.145 479.551C111.028 464.12 78.766 463.139 78.766 463.139L72.5761 463.329C68.5949 461.649 65.1933 466.453 68.0086 469.801L77.4372 481.002C84.757 489.7 90.6515 499.522 94.8825 510.07L106.217 538.314C106.314 538.54 106.423 538.77 106.556 538.974C112.553 548.835 120.504 556.747 129.57 562.513C131.158 563.515 133.171 563.317 134.504 562.066C128.661 557.135 123.489 551.18 119.281 544.261Z" fill="#AF0249"/>
<path d="M175.452 381.633C178.193 378.681 183.147 381.239 182.501 385.279L180.993 394.85C180.97 395.007 180.958 395.166 180.952 395.322L180.933 395.273C180.945 395.407 180.946 395.539 180.95 395.678C181.09 398.482 181.206 401.411 181.278 404.448C181.302 405.207 181.317 405.971 181.337 406.742C181.361 407.551 181.37 408.369 181.385 409.194C181.404 410.686 181.415 412.195 181.425 413.734C181.429 413.773 181.428 413.804 181.424 413.847C181.426 416.224 181.41 418.654 181.374 421.137C181.328 423.696 181.258 426.301 181.155 428.946C181.121 429.81 181.086 430.686 181.052 431.561C180.934 434.184 180.783 436.847 180.592 439.545C180.532 440.445 180.465 441.35 180.391 442.259C179.903 448.591 179.219 455.074 178.291 461.643C178.159 462.587 178.022 463.522 177.878 464.463C177.757 465.278 177.631 466.086 177.504 466.906C176.926 470.487 176.274 474.071 175.543 477.675C175.425 478.264 175.302 478.847 175.176 479.441C174.846 481.023 174.494 482.619 174.126 484.203C174.014 484.687 173.901 485.172 173.785 485.649C172.97 489.079 172.076 492.494 171.098 495.9L171.091 495.904C131.286 464.733 78.7677 463.139 78.7677 463.139L58.3224 457.301C57.4933 456.956 56.7932 456.351 56.3259 455.575C54.879 453.172 56.0896 450.104 58.7402 449.443L113.851 435.829C125.095 433.055 135.032 426.604 142.161 417.47C142.222 417.393 142.282 417.327 142.347 417.256L175.452 381.633Z" fill="#EF3E5C"/>
<path d="M298.408 625.067C305.656 620.702 315.18 623.213 319.678 630.682C324.177 638.153 321.941 647.745 314.693 652.109C307.445 656.474 297.93 653.958 293.432 646.487C288.934 639.018 291.161 629.431 298.408 625.067Z" fill="#D30045"/>
<path d="M298.409 625.067C291.546 629.199 289.194 638.011 292.781 645.277C293.817 641.751 296.078 638.61 299.429 636.592C306.677 632.228 316.201 634.739 320.699 642.209C320.937 642.604 321.147 643.01 321.347 643.415C322.551 639.316 322.094 634.695 319.677 630.682C315.18 623.213 305.656 620.703 298.409 625.067Z" fill="#BC0245"/>
</svg>
