<svg width="100" height="120" viewBox="0 0 100 120" fill="none" xmlns="http://www.w3.org/2000/svg">
<path d="M55.8253 34.2245C61.8144 34.2245 66.6667 39.1541 66.6667 45.2314C66.6667 56.2383 55.8253 62.5069 44.995 73.5101C34.1647 62.5069 23.3344 56.2383 23.3344 45.2314C23.3344 39.1541 28.1831 34.2245 34.1647 34.2245C39.5799 34.2245 42.2875 36.9763 44.995 42.4797C47.7026 36.9763 50.4102 34.2245 55.8253 34.2245Z" fill="#EF3E5C"/>
<path d="M28.3339 45.6453C28.3339 40.0576 32.4335 35.4437 37.7431 34.7359C36.6898 34.3956 35.5112 34.2249 34.1647 34.2249C28.1831 34.2249 23.3344 39.1545 23.3344 45.2318C23.3344 56.2387 34.1647 62.5073 44.995 73.5105C45.7576 72.7358 46.5203 71.9864 47.2788 71.2551C37.426 61.8396 28.3339 55.7299 28.3339 45.6453Z" fill="#D63255"/>
<path d="M100 50.5803C100 60.5351 97.0938 69.8056 92.0796 77.5972C86.4658 86.3266 78.207 93.1948 68.4398 97.0723C62.7341 99.3347 56.5133 100.582 49.9982 100.582C41.3678 100.582 33.2487 98.397 26.1634 94.5449L0 100.582L8.36552 78.2737C3.07913 70.346 0 60.8217 0 50.58C0 22.9671 22.3853 0.578125 49.9982 0.578125C77.6147 0.578493 100 22.9675 100 50.5803ZM66.6667 45.2314C66.6667 39.1541 61.8147 34.2245 55.8253 34.2245C50.4102 34.2245 47.7026 36.9762 44.995 42.4797C42.2875 36.9762 39.5799 34.2245 34.1647 34.2245C28.1831 34.2245 23.3344 39.1541 23.3344 45.2314C23.3344 56.2383 34.1647 62.5069 44.995 73.5101C55.8253 62.5069 66.6667 56.2383 66.6667 45.2314Z" fill="#FFECB2"/>
<path d="M5.665 99.2756L13.5398 78.2769C8.25338 70.3495 5.17425 60.8251 5.17425 50.5831C5.17425 23.8333 26.1822 1.98543 52.5998 0.64636C51.7383 0.602215 50.8712 0.579407 49.9986 0.579407C22.3857 0.579407 0.000427246 22.9684 0.000427246 50.5812C0.000427246 60.8229 3.07956 70.3473 8.36595 78.2754L0.000427246 100.583L5.665 99.2756Z" fill="#E8D49C"/>
<path d="M49.9981 89.0897C48.9824 89.0897 48.1588 88.2664 48.1588 87.2503C48.1588 86.2343 48.9824 85.4109 49.9981 85.4109C69.2039 85.4109 84.8287 69.7861 84.8287 50.5803C84.8287 31.3768 69.2039 15.7534 49.9981 15.7534C48.9824 15.7534 48.1588 14.9298 48.1588 13.9141C48.1588 12.8984 48.9824 12.0747 49.9981 12.0747C71.2324 12.0747 88.5075 29.3483 88.5075 50.5803C88.5075 71.8146 71.2324 89.0897 49.9981 89.0897Z" fill="#E8D49C"/>
<path d="M53.3348 119.09H9.9989C8.98319 119.09 8.15952 118.267 8.15952 117.251C8.15952 116.235 8.98319 115.412 9.9989 115.412H53.3348C54.3505 115.412 55.1742 116.235 55.1742 117.251C55.1742 118.267 54.3505 119.09 53.3348 119.09Z" fill="#FFECB2"/>
</svg>
