<svg width="200" height="200" viewBox="0 0 200 200" fill="none" xmlns="http://www.w3.org/2000/svg">
<rect width="200" height="200" rx="20" fill="#FFDADE"/>
<path d="M99.8333 40C130.673 40 155.667 66.9961 155.667 100.306C155.667 133.608 130.673 160.613 99.8333 160.613C69.0014 160.613 44 133.608 44 100.306C44 66.9961 69.0014 40 99.8333 40ZM127.754 100.306C127.754 83.6512 115.254 70.1574 99.8333 70.1574C84.4135 70.1574 71.9205 83.6512 71.9205 100.306C71.9205 116.962 84.4143 130.455 99.8333 130.455C115.253 130.455 127.754 116.962 127.754 100.306Z" fill="#EF3E5C"/>
<path d="M49.199 107.844C49.199 74.5333 74.2004 47.5373 105.032 47.5373C121.815 47.5373 136.856 55.5437 147.09 68.2007C137.205 51.261 119.744 40 99.8333 40C69.0014 40 44 66.996 44 100.306C44 115.484 49.2044 129.342 57.7762 139.944C52.35 130.645 49.199 119.645 49.199 107.844Z" fill="#E42A53"/>
</svg>
