<svg width="200" height="200" viewBox="0 0 200 200" fill="none" xmlns="http://www.w3.org/2000/svg">
<rect width="200" height="200" rx="20" fill="#FFDADE"/>
<path d="M138.341 26C159.614 26 176.829 44.6011 176.829 67.5298C176.829 109.051 138.341 132.703 99.8989 174.225C61.4494 132.703 23 109.051 23 67.5298C23 44.6011 40.2221 26 61.4494 26C80.6742 26 90.2865 36.3825 99.8989 57.1465C109.512 36.3833 119.116 26 138.341 26Z" fill="#EF3E5C"/>
<path d="M35.7086 73.5613C35.7086 50.6325 52.9308 32.0315 74.1581 32.0315C77.4708 32.0315 80.4924 32.3468 83.2837 32.9641C77.4762 28.3236 70.5373 26 61.4494 26C40.2222 26 23 44.6011 23 67.5298C23 109.051 61.4494 132.703 99.8989 174.225C101.046 172.985 102.193 171.763 103.339 170.556C68.2151 134.81 35.7086 111.739 35.7086 73.5613Z" fill="#E42A53"/>
<path d="M100.909 131.631C100.533 131.631 100.151 131.572 99.7725 131.445C73.7413 122.772 49.7335 78.6669 48.7245 76.7934C47.6547 74.8076 48.2778 72.2619 50.1156 71.1063C51.9556 69.9508 54.3117 70.6238 55.3816 72.608C55.6142 73.0389 78.8856 115.779 102.044 123.497C104.076 124.173 105.216 126.501 104.589 128.696C104.078 130.483 102.554 131.631 100.909 131.631Z" fill="#E42A53"/>
</svg>
